<?xml version="1.0" standalone="no"?>
<!DOCTYPE svg PUBLIC "-//W3C//DTD SVG 20010904//EN"
 "http://www.w3.org/TR/2001/REC-SVG-20010904/DTD/svg10.dtd">
<svg version="1.0" xmlns="http://www.w3.org/2000/svg"
 width="200.000000pt" height="200.000000pt" viewBox="0 0 200.000000 200.000000"
 preserveAspectRatio="xMidYMid meet">

<g transform="translate(0.000000,200.000000) scale(0.100000,-0.100000)"
fill="#000000" stroke="none">
<path d="M1366 1815 c-9 -25 -8 -27 14 -20 11 3 20 2 20 -3 0 -5 -11 -12 -25
-14 -14 -3 -22 -1 -18 5 3 5 0 7 -8 5 -8 -3 -14 -12 -13 -19 1 -8 -7 -15 -17
-15 -23 0 -23 -2 1 26 11 13 17 26 14 29 -4 3 -9 0 -11 -6 -3 -7 -9 -13 -14
-13 -6 0 -7 5 -4 10 3 6 2 10 -3 10 -6 0 -13 -7 -16 -16 -4 -10 -2 -13 6 -8 7
4 8 3 4 -4 -9 -16 -68 -10 -61 5 6 16 -33 -5 -52 -27 -21 -25 -14 -34 10 -14
l22 19 -19 -22 c-11 -13 -25 -23 -33 -23 -7 0 -13 -7 -13 -15 0 -8 4 -15 10
-15 5 0 7 -7 3 -15 -3 -9 -8 -14 -11 -11 -9 10 -42 -14 -42 -31 0 -10 6 -14
20 -10 11 3 22 1 25 -3 3 -5 -27 -14 -65 -21 l-70 -12 22 -24 c12 -12 28 -23
36 -23 9 0 12 -3 9 -7 -4 -3 9 -21 28 -40 19 -19 35 -39 35 -44 0 -6 6 -7 13
-4 6 4 3 -1 -7 -9 -25 -20 -60 -20 -76 -1 -7 8 -17 12 -23 8 -6 -4 -8 0 -4 10
6 17 -7 17 -55 -2 -19 -7 -28 -7 -28 0 0 6 -6 6 -19 -1 -11 -5 -29 -10 -40
-10 -11 0 -34 -12 -51 -26 -17 -15 -34 -24 -37 -20 -3 3 -13 0 -22 -6 -9 -7 7
13 34 44 28 31 53 56 57 57 11 2 88 74 88 83 0 4 -10 5 -22 2 -13 -2 -34 -6
-48 -9 -14 -3 -65 -13 -115 -24 l-90 -18 -24 -81 c-22 -70 -28 -81 -50 -85
-14 -3 -32 -1 -38 5 -9 7 -14 6 -19 -5 -6 -17 -48 -32 -77 -28 -22 3 -57 -26
-57 -46 0 -7 -8 -17 -17 -20 -18 -7 -77 -70 -79 -85 -1 -4 -2 -13 -3 -19 0 -5
-5 -8 -10 -5 -13 8 -22 -36 -10 -50 7 -8 7 -14 -1 -19 -5 -3 -10 -11 -10 -16
0 -6 5 -7 12 -3 7 4 8 3 4 -5 -4 -6 -2 -19 6 -28 11 -14 11 -16 -2 -9 -9 4 -8
2 2 -7 10 -8 15 -17 11 -20 -14 -15 12 -6 28 9 24 21 20 0 -8 -47 -19 -34 -20
-38 -4 -63 13 -22 14 -28 2 -35 -7 -5 -11 -13 -7 -19 3 -6 2 -13 -4 -17 -5 -3
-10 -16 -10 -29 0 -12 -3 -26 -7 -30 -12 -12 -12 -36 0 -36 7 0 6 -5 -3 -11
-11 -8 -9 -9 10 -3 22 6 23 5 11 -9 -7 -9 -17 -14 -22 -11 -5 3 -14 2 -20 -2
-18 -11 12 -24 32 -13 28 15 35 -22 8 -44 -19 -15 -20 -20 -8 -28 21 -13 33
-11 20 5 -11 14 -6 21 27 40 13 8 13 -19 -2 -42 -15 -25 -25 -73 -14 -66 7 5
9 1 5 -9 -3 -9 -1 -17 4 -19 7 -2 7 -12 0 -28 -5 -14 -10 -21 -10 -16 -1 6
-14 -3 -31 -19 -16 -15 -27 -32 -24 -37 3 -5 -6 -22 -20 -39 -29 -34 -35 -59
-9 -38 15 13 15 12 3 -11 -13 -24 -12 -25 7 -8 28 25 40 22 17 -4 -20 -23 -4
-17 30 11 16 13 18 13 11 1 -4 -8 -15 -23 -23 -32 -10 -12 -11 -18 -4 -18 7 0
12 5 12 11 0 5 4 8 9 4 5 -3 12 -1 16 4 3 6 13 7 21 4 12 -5 10 -11 -13 -37
-15 -17 -19 -23 -7 -13 11 9 24 14 29 10 4 -5 5 -2 0 6 -5 9 -3 12 6 9 8 -3
12 -13 11 -23 -3 -16 -1 -17 12 -6 35 29 41 -12 7 -53 -14 -17 -12 -17 16 2
23 16 42 21 67 19 20 -2 36 -1 36 4 0 5 7 6 15 3 8 -4 12 -10 9 -15 -3 -5 4
-9 15 -9 12 0 21 7 21 15 0 9 6 12 15 9 15 -6 45 11 45 26 0 4 -9 10 -21 13
-13 4 -18 10 -14 17 6 9 10 9 16 -1 6 -10 11 -11 17 -3 4 6 18 10 32 8 14 -1
29 -3 33 -3 5 -1 5 -5 2 -11 -3 -5 0 -7 8 -4 8 3 20 16 27 29 7 13 17 22 22
19 4 -3 6 -10 2 -16 -3 -5 8 -2 25 6 20 11 31 13 31 5 0 -6 7 -8 15 -5 9 3 79
-13 156 -35 77 -22 146 -38 153 -36 9 4 12 -1 9 -13 -4 -14 0 -19 13 -18 11 1
29 -2 42 -6 13 -5 22 -3 22 3 0 6 6 10 13 9 7 -2 12 9 13 27 1 17 2 50 3 75 1
33 4 41 11 30 8 -13 13 -13 32 -1 l23 14 -22 -25 c-23 -24 -32 -55 -13 -43 6
4 8 -5 4 -22 -5 -24 -2 -29 16 -29 15 0 23 8 27 28 3 15 9 28 14 28 5 0 8 3 7
8 -2 4 10 24 26 45 26 34 32 37 64 31 34 -7 35 -6 28 20 -5 19 -2 28 9 32 8 3
12 10 9 15 -3 5 2 9 10 9 9 0 15 3 14 8 -2 4 10 24 26 45 26 34 28 40 18 79
-7 28 -8 48 -1 61 6 10 7 26 3 35 -10 24 -11 44 -2 64 6 13 3 15 -15 10 -20
-5 -21 -4 -7 13 14 16 13 17 -7 11 -16 -5 -21 -3 -19 11 0 10 -6 18 -14 18 -8
0 -15 7 -16 15 -1 35 -14 46 -47 42 l-32 -5 19 22 c17 19 17 21 3 21 -22 0
-21 6 3 37 24 30 26 47 6 40 -10 -4 -13 -1 -9 9 3 7 0 14 -6 14 -6 0 5 21 24
46 19 25 35 54 35 64 0 11 11 31 25 46 14 15 25 35 25 45 0 9 4 19 8 21 13 5
24 58 12 58 -5 0 -10 -5 -10 -11 0 -5 -5 -7 -11 -4 -7 5 -4 14 7 26 9 11 14
22 11 25 -3 4 -2 15 4 26 9 18 8 18 -10 8 -26 -13 -28 -2 -3 17 12 9 13 13 2
11 -19 -4 -20 23 0 47 46 57 47 59 22 46 -22 -12 -23 -11 -12 9 10 18 10 21
-2 14 -7 -5 -17 -9 -23 -9 -5 -1 -9 -7 -7 -14 1 -7 -2 -10 -7 -7 -5 3 -7 16
-3 28 4 16 2 20 -10 16 -11 -5 -15 4 -17 40 -1 26 -8 50 -14 54 -9 6 -9 8 -1
8 7 0 15 7 18 16 4 12 2 15 -9 10 -8 -3 -15 -1 -15 5 0 27 -20 -6 -21 -34 0
-18 -4 -41 -9 -52 -7 -16 -9 -13 -9 16 -1 20 6 54 15 75 l16 39 -23 -20 c-13
-11 -27 -24 -32 -30 -9 -12 -1 70 9 86 3 6 -5 3 -20 -6 -24 -16 -26 -16 -26
-1 0 10 -5 14 -11 10 -6 -3 -3 9 7 27 20 38 27 72 12 62 -6 -3 -14 0 -18 7 -5
8 -9 7 -14 -5z m44 -139 c0 -2 -7 -6 -15 -10 -8 -3 -15 -1 -15 4 0 6 7 10 15
10 8 0 15 -2 15 -4z m-93 -32 c-3 -3 -12 -4 -19 -1 -8 3 -5 6 6 6 11 1 17 -2
13 -5z m-54 -11 c-7 -2 -19 -2 -25 0 -7 3 -2 5 12 5 14 0 19 -2 13 -5z m97
-62 c0 -6 -4 -12 -8 -15 -5 -3 -9 1 -9 9 0 8 4 15 9 15 4 0 8 -4 8 -9z m-160
-15 c0 -11 -19 -15 -25 -6 -3 5 1 10 9 10 9 0 16 -2 16 -4z m70 -10 c0 -3 -4
-8 -10 -11 -5 -3 -10 -1 -10 4 0 6 5 11 10 11 6 0 10 -2 10 -4z m47 -43 c-3
-10 -5 -4 -5 12 0 17 2 24 5 18 2 -7 2 -21 0 -30z m30 15 c-3 -8 -6 -5 -6 6
-1 11 2 17 5 13 3 -3 4 -12 1 -19z m-167 -3 c-7 -9 -15 -13 -19 -10 -3 3 1 10
9 15 21 14 24 12 10 -5z m267 -7 c-3 -8 -6 -5 -6 6 -1 11 2 17 5 13 3 -3 4
-12 1 -19z m-207 -10 c0 -7 -16 -11 -23 -5 -2 1 -11 -4 -20 -12 -19 -15 -23
-1 -6 16 13 13 49 13 49 1z m25 -26 c-3 -3 -15 -6 -27 -7 -20 -2 -20 -1 -3 11
17 13 43 9 30 -4z m-525 4 c0 -2 -9 -6 -20 -9 -11 -3 -18 -1 -14 4 5 9 34 13
34 5z m30 -6 c0 -5 -2 -10 -4 -10 -3 0 -8 5 -11 10 -3 6 -1 10 4 10 6 0 11 -4
11 -10z m667 -12 c-3 -8 -6 -5 -6 6 -1 11 2 17 5 13 3 -3 4 -12 1 -19z m83 -2
c0 -3 -4 -8 -10 -11 -5 -3 -10 -1 -10 4 0 6 5 11 10 11 6 0 10 -2 10 -4z
m-823 -28 c-3 -8 -6 -5 -6 6 -1 11 2 17 5 13 3 -3 4 -12 1 -19z m37 10 c-3 -4
-9 -8 -15 -8 -5 0 -9 4 -9 8 0 5 7 9 15 9 8 0 12 -4 9 -9z m36 -32 c-17 -5
-30 -13 -30 -18 0 -5 -6 -3 -13 4 -12 10 -10 15 11 25 13 7 28 10 33 7 5 -3 9
1 9 8 0 9 3 9 10 -2 7 -12 3 -17 -20 -24z m657 2 c-3 -7 -5 -2 -5 12 0 14 2
19 5 13 2 -7 2 -19 0 -25z m-737 -18 c-6 -11 -12 -20 -14 -20 -2 0 -2 9 1 20
3 11 9 20 15 20 5 0 4 -9 -2 -20z m727 -47 c-3 -10 -5 -4 -5 12 0 17 2 24 5
18 2 -7 2 -21 0 -30z m131 -127 c-17 -33 -18 -32 -18 9 0 32 2 36 15 25 11 -9
12 -17 3 -34z m-1103 -6 c-3 -5 -12 -10 -18 -10 -7 0 -6 4 3 10 19 12 23 12
15 0z m402 -82 c-2 -13 -4 -3 -4 22 0 25 2 35 4 23 2 -13 2 -33 0 -45z m-427
37 c0 -2 -9 -9 -20 -15 -16 -9 -18 -8 -14 5 5 13 34 22 34 10z m477 -27 c-3
-7 -5 -2 -5 12 0 14 2 19 5 13 2 -7 2 -19 0 -25z m-547 -2 c0 -2 -8 -10 -17
-17 -16 -13 -17 -12 -4 4 13 16 21 21 21 13z m1027 -28 c-3 -7 -5 -2 -5 12 0
14 2 19 5 13 2 -7 2 -19 0 -25z m-990 -10 c-3 -8 -6 -5 -6 6 -1 11 2 17 5 13
3 -3 4 -12 1 -19z m245 -14 c-9 -16 -10 -14 -9 8 1 15 6 23 11 18 4 -4 4 -16
-2 -26z m254 -1 c-11 -11 -17 4 -9 23 7 18 8 18 11 1 2 -10 1 -21 -2 -24z
m-76 -28 c0 -5 -5 -3 -10 5 -5 8 -10 20 -10 25 0 6 5 3 10 -5 5 -8 10 -19 10
-25z m557 13 c-3 -8 -6 -5 -6 6 -1 11 2 17 5 13 3 -3 4 -12 1 -19z m-470 -53
c-2 -11 -9 -31 -17 -45 -8 -14 -13 -28 -12 -32 1 -5 -5 -8 -15 -8 -15 0 -15 2
1 19 10 11 13 22 8 25 -6 3 -13 0 -16 -6 -3 -7 -3 3 1 22 3 19 6 41 6 47 0 9
4 10 13 2 10 -8 11 -16 4 -29 -6 -11 -6 -21 -1 -24 12 -8 22 37 11 48 -6 6
-10 17 -10 26 1 12 4 11 15 -5 9 -10 14 -28 12 -40z m306 0 c13 -18 14 -25 5
-25 -19 0 -33 13 -36 33 -4 24 10 21 31 -8z m154 -7 c-3 -7 -5 -2 -5 12 0 14
2 19 5 13 2 -7 2 -19 0 -25z m-526 -10 c-3 -21 -6 -26 -9 -15 -3 17 3 47 11
47 2 0 1 -15 -2 -32z m326 6 c0 -13 -21 -32 -76 -71 -3 -2 10 -18 27 -36 47
-49 39 -57 -10 -12 l-43 40 40 -43 c27 -29 45 -40 57 -36 10 3 26 1 35 -5 10
-6 14 -11 8 -12 -53 -7 -66 -2 -114 44 -28 27 -51 52 -51 56 0 10 105 88 121
90 3 1 6 -6 6 -15z m237 -69 c11 -8 15 -15 10 -15 -6 0 -19 7 -30 15 -10 8
-14 14 -9 14 6 0 19 -6 29 -14z m-459 -5 c-3 -5 -12 -7 -20 -3 -21 7 -19 13 6
13 11 0 18 -4 14 -10z m-15 -79 c0 -5 -9 -7 -20 -4 -11 3 -20 7 -20 9 0 2 9 4
20 4 11 0 20 -4 20 -9z m-548 -102 c-26 -23 -33 -24 -25 -2 5 12 3 14 -8 8
-12 -7 -12 -6 -1 7 8 9 20 14 28 11 8 -3 14 1 15 8 0 11 2 12 6 1 3 -8 -4 -22
-15 -33z m985 -16 c-3 -10 -5 -4 -5 12 0 17 2 24 5 18 2 -7 2 -21 0 -30z m-10
-55 c-3 -7 -5 -2 -5 12 0 14 2 19 5 13 2 -7 2 -19 0 -25z m-627 -372 c0 -2 -7
-6 -15 -10 -8 -3 -15 -1 -15 4 0 6 7 10 15 10 8 0 15 -2 15 -4z m537 -58 c-3
-8 -6 -5 -6 6 -1 11 2 17 5 13 3 -3 4 -12 1 -19z"/>
<path d="M1098 972 c-21 -15 -38 -31 -38 -35 0 -7 51 26 85 55 24 20 -14 5
-47 -20z"/>
<path d="M1066 1622 c-2 -4 4 -9 15 -9 11 -1 17 2 14 8 -7 11 -22 12 -29 1z"/>
<path d="M1010 1545 c0 -5 5 -17 10 -25 5 -8 10 -10 10 -5 0 6 -5 17 -10 25
-5 8 -10 11 -10 5z"/>
<path d="M1550 1509 c0 -5 5 -7 10 -4 6 3 10 8 10 11 0 2 -4 4 -10 4 -5 0 -10
-5 -10 -11z"/>
<path d="M285 1050 c-3 -5 -1 -10 4 -10 6 0 11 5 11 10 0 6 -2 10 -4 10 -3 0
-8 -4 -11 -10z"/>
<path d="M1603 740 c-7 -10 -9 -21 -5 -24 4 -2 12 7 19 20 13 29 3 32 -14 4z"/>
<path d="M337 583 c-4 -3 -7 -11 -7 -17 0 -6 5 -5 12 2 6 6 9 14 7 17 -3 3 -9
2 -12 -2z"/>
<path d="M216 527 c3 -10 9 -15 12 -12 3 3 0 11 -7 18 -10 9 -11 8 -5 -6z"/>
<path d="M1529 393 c-1 -2 -2 -8 -3 -13 0 -6 -8 -15 -16 -20 -13 -9 -13 -11 0
-20 21 -13 30 -12 24 3 -2 7 3 21 12 32 8 11 13 14 9 8 -3 -7 -1 -13 4 -13 6
0 11 6 11 14 0 12 -37 20 -41 9z"/>
<path d="M766 263 c-6 -14 -5 -15 5 -6 7 7 10 15 7 18 -3 3 -9 -2 -12 -12z"/>
</g>
</svg>
