<svg xmlns="http://www.w3.org/2000/svg" viewBox="0 0 21.51 12.49"><defs><style>.cls-1{fill:#fff;}</style></defs><g id="Boutons"><path class="cls-1" d="M21.49,1c0-.07-.19-.2-.2-.15l.22.26Z"/><path class="cls-1" d="M20.86.8a2,2,0,0,0,.47.58c-.19-.26-.08-.17-.31-.47,0-.06.12,0,.2.11,0-.07.1,0,0-.16S20.91.76,21,1A.75.75,0,0,1,20.86.8Z"/><path class="cls-1" d="M17.62,3.31h0Z"/><path class="cls-1" d="M15.71,5s0,0,0-.07A.11.11,0,0,0,15.71,5Z"/><path class="cls-1" d="M15.15,5h0S15.14,5,15.15,5Z"/><path class="cls-1" d="M17.62,3.31l-.12,0C17.57,3.37,17.58,3.32,17.62,3.31Z"/><path class="cls-1" d="M21,1.76a.2.2,0,0,0,0-.08v.05Z"/><path class="cls-1" d="M18.22,2.34v0l-.08-.1Z"/><path class="cls-1" d="M18.78,1.7s.17.21.26.3c-.08-.09-.11-.14-.11-.17Z"/><path class="cls-1" d="M20.09,1.09v0Z"/><path class="cls-1" d="M17.74,2.73l-.08-.07Z"/><path class="cls-1" d="M.52,2.2l0,0S.51,2.19.52,2.2Z"/><polygon class="cls-1" points="0.8 0.52 0.82 0.52 0.94 0.41 0.8 0.52"/><path class="cls-1" d="M14.34,5.31h0S14.33,5.29,14.34,5.31Z"/><path class="cls-1" d="M10.69,8.87c-.08.27-.18.27-.26.59A3.7,3.7,0,0,0,10.69,8.87Z"/><path class="cls-1" d="M21,1.75l0,0A0,0,0,0,0,21,1.75Z"/><path class="cls-1" d="M10.43,9.46h0v0Z"/><path class="cls-1" d="M13.17,6.72l.1.07A.32.32,0,0,0,13.17,6.72Z"/><path class="cls-1" d="M14.41,6h0Z"/><path class="cls-1" d="M13,7.49s-.06,0-.05,0l0,0S12.91,7.47,13,7.49Z"/><path class="cls-1" d="M12.44,8l.05,0V8Z"/><path class="cls-1" d="M2.18,3.67l.16-.2C2.2,3.62,2.08,3.59,2.18,3.67Z"/><path class="cls-1" d="M20.92,1.65l.07.1v0Z"/><path class="cls-1" d="M14.51,9.08l-.11.05A.16.16,0,0,0,14.51,9.08Z"/><path class="cls-1" d="M5.91,7.35h0S5.89,7.37,5.91,7.35Z"/><path class="cls-1" d="M14.18,9.41a.88.88,0,0,0-.18-.1l0,.07Z"/><path class="cls-1" d="M2.34,3.47Z"/><path class="cls-1" d="M1.33,3.4c.07.08.29-.22.45-.35.17,0-.14.23-.25.4.13,0,.42-.21.45-.15a.57.57,0,0,1-.11.11c.27-.14.19.17.52,0a.22.22,0,0,1-.05.08,4.34,4.34,0,0,1,.35-.37s.23-.1.07.08c0,0-.09,0-.15.09l.11,0c-.21.28-.14,0-.32.22.15,0,.44-.13.43,0-.23.25-.21,0-.35.24V3.5c-.31.45,0-.07-.37.39,0,.18.25,0,.29.19.16-.11.19-.21.35-.32.4-.08-.48.73,0,.53.19-.13.5-.43.42-.18l-.3.24c.08.14.46-.33.39,0-.13.09-.18,0-.2,0-.14.29.21-.1.27,0l-.23.25c.15.08.45,0,.62.11a.77.77,0,0,0-.22.22c.28,0,.32.38.33.67l.27-.14s-.07.12-.13.14.14-.13.25-.18-.07.16-.16.21c.28-.07.68-.08.57.25l-.08,0c0,.18.52-.32.41-.05l0,0c.1.28.5.3.33.76.33-.27.06.32.49-.08-.1.31-.21.36-.19.65,0,.06.32-.2.41-.19l-.22.22L6,7.06l-.22.3h.1s.06-.13.12-.19,0,.33-.08.44h.36A.47.47,0,0,1,6,7.71c.32-.13-.21.25.08.13a1,1,0,0,1,.18-.17c-.09.18,0,.27.13.29l-.16.14c.09.16.35.2.49.35,0-.13.29-.37.36-.36l-.22.25c.17-.11,0-.13.28-.25,0,.08-.23.3-.34.34H7c-.06.07-.12.09-.21.18.17-.12-.11.34.17.13l-.06.08c.14.14.29.13.42.24.2-.2.2-.11.4-.24,0,.16,0,.41.08.5s.19-.15.34-.24c-.17.19-.05.28-.23.35a.69.69,0,0,0,.5.14c.06-.09.07-.14.14-.19s0,.14-.1.22h0c.45-.09-.11.94.41.71h0a1.11,1.11,0,0,1,.37,0c.09.14-.19.07-.22.28.54-.07.42.5.79.46a.63.63,0,0,0,.3.75.82.82,0,0,1,.47.63v-.24c.09-.17.07.2.12.31,0-.19-.06-.28,0-.37a1.13,1.13,0,0,1,.28.2c.41-.42.94-.46,1.53-.87.26-.19-.36-.94.12-.81l.12.34a1.29,1.29,0,0,1,.4-.66.55.55,0,0,0,.25-.44c0,.07.11.14.08.16.22.12.18-.17,0-.3.05,0,.13.11.22.16s-.1-.33.1-.19a.12.12,0,0,1,0,.09c-.05-.11.17-.12-.06-.29.18,0,.07-.24.26-.2-.18-.26.25,0-.05-.36.31.33.4.12.31-.09.08.12.14.06.26.21.05-.06.05-.18-.13-.33.5.27-.08-.53.47-.1A2.93,2.93,0,0,1,15,7.77c.32.32-.14.21.2.54,0-.29-.17-.65.06-.73.08,0,.12.17.16.23,0-.28.32-.26.28-.57a.3.3,0,0,1,.06.11s.11,0,0-.15l0,.06c-.26-.17-.34-.54-.44-.66.37.46.23,0,.69.57a.5.5,0,0,0-.16-.23c.05,0,.12,0,.2.19,0-.18-.17-.3-.08-.38.07.07.08.11.16.2-.1-.18-.19-.36-.06-.37s.1.09.08.11c.11-.14-.15-.58.12-.58.27.34.15,0,.42.31V6.27l-.16-.1c.07-.06-.07-.31.07-.28l.07.15.07-.17-.17,0c-.07-.2-.34-.33-.18-.34,0,0,.07-.06.25.06h0c-.06-.11-.11-.24,0-.22s.28.3.35.35c-.19-.25.09-.21-.11-.49a1.23,1.23,0,0,0,.22.23l-.16-.2a.48.48,0,0,1,.23.16c.12,0-.36-.3-.11-.27,0,0,0,0,0,.1.19,0,.1-.33.29-.34.29.24,0,.15.23.34.1-.19,0-.61.18-.69h-.05c-.36-.39.28.08.18-.17,0,0,.18.24.15.19.15,0,.1-.29.12-.55l.08.12c.14,0,.2-.1.3-.12-.07-.11,0-.13-.19-.25.74.36.07-.65.69-.36,0,0,0,.13.05.12l.05-.23c-.17-.15-.11-.08-.27-.18s-.12-.23-.08-.26c0,.17.26.26.38.32-.05,0-.1-.11-.15-.16.36.22-.32-.34,0-.24l.08.09c0-.08-.09-.23,0-.25.2.17.05.13.2.29,0-.07-.25-.47,0-.33,0,.07,0,.11,0,.18.27.17.22.11.3.1h.19l-.09,0c-.42-.57.06-.24-.17-.66.21.4.16.2.37.42a.51.51,0,0,1,.24.13c-.13-.21.21.06,0-.25.07.06.06,0,.22.14,0-.11-.14-.11-.22-.2-.14-.33.5.07.31-.38,0-.25-.23-.5-.24-.72a.59.59,0,0,1,.22.28c.16,0,.18,0,.16-.15a.69.69,0,0,0,.2.17c0-.06-.22-.28-.06-.23a2.62,2.62,0,0,1,.23.32c0-.12-.09-.3-.1-.41a.89.89,0,0,1,.21.31A.51.51,0,0,0,21,1.11l-.1,0s.17.15.19.2-.14,0-.21-.06V1.14c-.44-.36-.08.22-.18.27l-.26-.33.16.32c-.09-.06-.27-.21-.27-.29-.2-.09.05.15-.15,0,0,0-.05,0-.05-.06l0,.14c-.05-.07-.21-.19-.14-.18-.26-.08.07.37-.19.18v0c0,.23.2.22.36.58l-.6-.47.2.23s-.06,0-.14-.08c.09.2.1.09.21.26-.26-.13-.09.27-.45-.06.14.19.19.06.24.25-.39-.35,0,.14-.25,0s0-.16-.25-.27c.29.36-.18,0-.17.15.25.26,0,.22,0,.39-.08-.09-.3,0-.47,0l0,0c.24.27.11.31.11.42a.93.93,0,0,1-.25-.33l-.05,0c.07.1.1.16.09.23l-.18-.21c-.06.08.08.38-.14.34.17.19.57.43.6.65A1.14,1.14,0,0,1,18.31,3s.05.11,0,.08l-.12-.2c-.12,0,.11.16.06.18-.14-.14-.12-.08-.23-.19s.09,0,0,0a.49.49,0,0,1-.32-.11c.08.07.19.18.18.23s-.19-.14-.31-.17c.08.11-.07.06.14.27,0,0-.12-.07-.19-.12.05.13-.15.2.11.38h0c.08.34-.38.15-.41.36l-.07-.07c0,.15-.12.21,0,.41,0,0-.18-.07-.25-.16,0,.1.06.19-.13.16s-.13-.09,0-.15c-.14,0-.27-.08-.16.19-.15-.21-.28-.17-.26-.08l.18.07c0,.07-.06.09-.11.11l-.22-.26c-.43-.13.22.76-.38.4.13.2.2,0,.36.26-.1,0-.51-.23-.53-.21-.23,0,.25.43.06.44.1.07.33.29.34.44s-.44-.27-.46-.38,0,0,.07,0a.21.21,0,0,0-.13-.19l.07.1c-.12,0-.2.05-.32-.11a.19.19,0,0,0,.2.16c-.21,0-.14.14-.32.15.06,0,.18.12.16.13-.24,0,.1.22.05.35-.18-.08-.29-.33-.28-.13-.14,0-.23-.21-.28-.3.08.24-.26.05-.34.07l0-.11a.09.09,0,0,1,0,.1l.19.15c-.05,0-.08,0-.14-.06.08.14.29.26.39.47-.12-.06,0,.19-.25,0,.19,0-.23-.21-.18-.34q0,.07-.06.06a.1.1,0,0,1-.05-.07c-.31-.09.2.3.09.41-.11-.14-.26-.22-.25-.17s.23.18.28.32c-.16,0,0,.15-.05.17h.09c.11.14.06.16.05.24-.1-.09,0-.11-.08-.13.17.27-.35-.11-.28.11-.12,0-.24-.23-.32-.26.08.25-.27-.08-.22.14s.16.1.26.32l0-.26.15.34c.05,0,0-.2,0-.2.09.19.06.14.22.26-.32-.19,0,.26-.21.16l-.42-.42c-.29-.08,0,.4-.21.43l.12,0c.15.18-.06.1,0,.21a1.14,1.14,0,0,0-.32-.23c.11.1-.1.09.16.38L13.19,7c-.18,0,.27.53.12.58-.12-.18-.26-.23-.3-.41,0,0-.1,0,0,.14-.11-.07.09.28-.07.18,0,.08.19.23.14.25A.21.21,0,0,1,13,7.71c.07.07,0,.16.22.28-.54-.33-.27.33-.74,0a1,1,0,0,1-.13.34c0-.05-.07-.07,0-.07-.23,0,.34.46.09.42s-.07-.18-.19-.23c-.47-.44-.06.19-.41,0V8.45c-.22-.1,0,.31-.09.37l-.07-.07a.94.94,0,0,1,.12.64c-.15-.21-.06-.13-.25-.31,0,.05.3.29.28.41a1.34,1.34,0,0,1-.4-.36l0-.05c-.24-.27,0,.05-.1,0L11.25,9c0,.09.17.45.08.51l.05.11c.11.45-.12-.19-.06.16l-.15-.41a2,2,0,0,1,0,.68c0-.39,0-.62,0-.83,0,0,0,.09,0,.34,0-.06,0-.18,0-.12a1.07,1.07,0,0,1-.06.71c0-.66-.1-.51-.14-.55a1.07,1.07,0,0,1,0-.46c-.09.31-.09-.26-.13-.23-.19.65,0,0-.25.63-.05,0-.05,0,0,0s.06-.29.1-.42.09-.1.15-.23a1.38,1.38,0,0,1,.21-.39c-.12.19-.18.26-.14.18l-.15.26c-.24.21.29-.44.06-.22l.14-.13c0,.06-.08,0-.18,0s-.22,0-.42.12c0-.06.14-.2.2-.2-.11-.21-.72,0-.63-.32L9.89,8c-.06,0-.25.15-.18,0s.12-.1.11-.12-.26.11-.24,0l.15-.09c0-.29-.52.06-.72,0a.73.73,0,0,0,.28-.64l0,0c-.14-.22-.56,0-.84-.09.23-.44-.21-.49-.18-.84A.77.77,0,0,1,8,6.43c0-.11-.32.11,0-.17v0C8.23,6,8.07,6,8,5.89l-.39.36C8,5.55,7,6,7.41,5.45c-.14.06-.18,0-.31.06l.2-.19A.47.47,0,0,0,7,5l.17-.12c-.06-.08-.67.49-.75.43L6.72,5c-.13-.13,0-.52-.41-.38.05,0,.14-.13.17-.12s0-.44-.42,0c.26-.27-.11-.16-.3-.11L6,4.17c-.31.19-.39.26-.54.24,0,0,.14-.17.12-.09,0-.17-.24.13-.22-.05l.16-.1c0-.08-.12,0-.3.1s-.08-.18.09-.37C5.16,4,5,4.11,5,4a.42.42,0,0,1,.15-.12c0-.24-.4.06-.29-.21A.73.73,0,0,0,5,3.56c.08.1.14.18.12.19.18-.19.14-.29.45-.48-.19.08-.59.27-.58.12L5,3.31H5s0,0-.07,0a.2.2,0,0,0,0-.11C5.1,3,5,3,4.92,3c-.19.2-.21.12-.33.33,0,0,0,0,.07,0h0l.11.08c-.13.07-.25.13-.18,0l-.37.27c.23-.33.28-.58.44-.76-.23,0-.34-.19-.78.11C3.81,3,4,2.84,4,2.77s.08,0,.14,0c-.16,0-.22-.15-.5.1,0-.2.28-.2.13-.26l.1-.07c.2-.63-1,.32-.72-.46a.37.37,0,0,1-.07.12c0-.51-.78-.34-.68-1,0-.16-.17,0-.35.08L2.25,1l-.33.17c-.29.07.33-.72-.15-.52L1.64.84c0-.08-.25-.08-.07-.24,0,0-.17.14-.11,0L1.57.53,1.25.59c0-.18.46-.42.34-.59a1,1,0,0,0-.53.27S1,.39.93.51H.82a2.89,2.89,0,0,0-.82,1l.28-.12-.13.18L.07,1.49c-.11.19,0,.09.17,0a.8.8,0,0,0-.14.21l.39-.23c-.12.14-.29.22-.3.35.18-.11.25-.33.41-.36-.11.19-.25.3-.07.22a.47.47,0,0,1-.2.15c.14-.06.15.07.35-.08-.14.22.19.09-.13.39C.64,2.1.87,2,.92,2c-.44.3.12.16-.3.55.39-.29.34,0,.62-.06,0,0-.1.06-.09,0s-.06.19-.09.29a2,2,0,0,1,.64-.38c-.21.33-.36.29-.6.56.22-.23.33-.11.5-.32a1.42,1.42,0,0,1-.25.38c.36-.34.11,0,.36-.19-.1.24-.31.34-.12.31A.44.44,0,0,1,1.33,3.4ZM3.75,4.63h0l0,0Zm.16.15s0,0-.06-.08S4,4.56,4,4.58,3.94,4.7,3.91,4.78Zm1-1.7s0,0,0,.08l-.06,0,0,0Z"/><path class="cls-1" d="M4.66,3.29h0l0,.06.07-.06Z"/><path class="cls-1" d="M17.67,3.32h0l0,0Z"/><polygon class="cls-1" points="5.64 7.28 5.69 7.22 5.64 7.26 5.64 7.28"/><path class="cls-1" d="M19.2,3.16l.06,0A.15.15,0,0,0,19.2,3.16Z"/><path class="cls-1" d="M19.61,2.84l.12,0A.35.35,0,0,0,19.61,2.84Z"/><path class="cls-1" d="M20,2.66l-.08-.09h0Z"/><path class="cls-1" d="M15.76,7.35v0C15.77,7.44,15.78,7.4,15.76,7.35Z"/><path class="cls-1" d="M16.63,5.56a1.21,1.21,0,0,1,.05.14S16.74,5.68,16.63,5.56Z"/><polygon class="cls-1" points="14.52 9.07 14.52 9.07 14.51 9.08 14.52 9.07"/><path class="cls-1" d="M16.61,5.76c.06,0,.08,0,.07-.06S16.6,5.71,16.61,5.76Z"/><path class="cls-1" d="M21.3,1.53h0l0,0Z"/><path class="cls-1" d="M21.29,1.49v0S21.27,1.47,21.29,1.49Z"/><path class="cls-1" d="M21.26,1.37l0,.09S21.31,1.44,21.26,1.37Z"/><path class="cls-1" d="M20.83,1.81l.07.08Z"/><path class="cls-1" d="M20.74,2S21,2,21,2l-.05-.06C21,2,20.64,1.8,20.74,2Z"/><path class="cls-1" d="M19.38,1.53l.15,0c-.09-.06-.22-.14-.19-.2C19,1.18,19.53,1.43,19.38,1.53Z"/><path class="cls-1" d="M19,1.71c0-.09-.11-.11-.15-.16S18.87,1.68,19,1.71Z"/><path class="cls-1" d="M16.85,3.83l-.17-.19C16.66,3.71,16.75,3.71,16.85,3.83Z"/><polygon class="cls-1" points="17.38 5.17 17.53 5.24 17.39 5.06 17.38 5.17"/><polygon class="cls-1" points="15.86 4.12 15.85 4.08 15.85 4.21 15.86 4.12"/><path class="cls-1" d="M12.36,7.74l.23.21C12.58,7.89,12.34,7.63,12.36,7.74Z"/><path class="cls-1" d="M11.26,9.3c-.08-.15-.13-.24-.09-.07C11.2,9.24,11.27,9.35,11.26,9.3Z"/><polygon class="cls-1" points="7.84 5.9 7.94 5.85 7.82 5.86 7.84 5.9"/></g></svg>