<svg xmlns="http://www.w3.org/2000/svg" viewBox="0 0 21.96 22"><defs><style>.cls-1{fill:#9d9c87;}</style></defs><g id="Image"><path class="cls-1" d="M16.2,14.17C18,16,19.71,17.73,21.44,19.5A1.41,1.41,0,0,1,21,21.94a1.47,1.47,0,0,1-1.55-.49c-1.57-1.59-3.17-3.17-4.73-4.79-.39-.41-.64-.42-1.14-.13a8.56,8.56,0,0,1-9.81-.31A8.4,8.4,0,0,1,.24,7.06,8.36,8.36,0,0,1,7.12.22a8.37,8.37,0,0,1,9,3.48,8.63,8.63,0,0,1,.54,9.71C16.51,13.68,16.34,13.92,16.2,14.17ZM15.11,9A6.2,6.2,0,1,0,8.9,15.15,6.17,6.17,0,0,0,15.11,9Z"/></g></svg>