<svg xmlns="http://www.w3.org/2000/svg" viewBox="0 0 745.86 51.55"><defs><style>.cls-1{fill:#1a1818;}.cls-2{fill:#a9a996;}</style></defs><g id="Boutons"><polygon class="cls-1" points="745.65 20.08 714.09 50.74 30.27 50.74 0.51 12.22 16.51 0.74 728.09 0.74 745.65 20.08"/><path class="cls-2" d="M745.41,20.31c.57.56.34.16-1.17-1.47l-1.19-1.06Z"/><path class="cls-2" d="M735.57,9c-1.82-1.88-4-4-2.92-2.67,1.86,1.81,2.23,2.32,4.25,4.26a16.57,16.57,0,0,1,2.27,2.68c.56.55,2.3,2.58,3.18,3.4-1.85-2.23-4.32-5-7-7.72C734.85,8.34,735.42,8.9,735.57,9Z"/><path class="cls-2" d="M521.72.51l1.4,0Z"/><path class="cls-2" d="M386.94.42c1,0,1.46,0,1.51,0C387.5.4,386.72.41,386.94.42Z"/><path class="cls-2" d="M363.93.24h1.36C364.77.23,364.25.23,363.93.24Z"/><path class="cls-2" d="M521.72.51l-3.6,0C517.87.51,520,.5,521.72.51Z"/><path class="cls-2" d="M709.25,1.17l2,0h-1.84Z"/><path class="cls-2" d="M581.13.38h1.1l.91-.07Z"/><path class="cls-2" d="M626.73.35a7.62,7.62,0,0,0-1.78.2c.58-.06,1.34-.09,2.24-.1C627.21.42,627.08.39,626.73.35Z"/><path class="cls-2" d="M699,.6l1.28,0Z"/><path class="cls-2" d="M548.5.35a2.66,2.66,0,0,0-.42,0A2.45,2.45,0,0,0,548.5.35Z"/><path class="cls-2" d="M705.24,50.08s0,0,0,0C705.51,50.09,705.59,50.08,705.24,50.08Z"/><path class="cls-2" d="M745.68,20.11l-.52.52c0,.07-.08.14-.06.16Z"/><path class="cls-2" d="M321.82.06h0Z"/><path class="cls-2" d="M43.2,51.32c-4.38-.12,7.13-.16.54-.3C44.35,51.08,37.74,51.24,43.2,51.32Z"/><path class="cls-2" d="M708.07,1.15h0Z"/><path class="cls-2" d="M43.74,51Z"/><path class="cls-2" d="M224.79.14a9.79,9.79,0,0,0,1,.06S225.52.17,224.79.14Z"/><path class="cls-2" d="M297.07.34l-1.78,0Z"/><path class="cls-2" d="M187.25.34c-1,0-1.3,0-2.63,0l.41,0C185.51.33,186.15.32,187.25.34Z"/><path class="cls-2" d="M148.19.34l.72,0h1.24Z"/><path class="cls-2" d="M586.52,50.15c.85,0,1.38.08,1.8.13C587.72,50.18,593.46,50.14,586.52,50.15Z"/><path class="cls-2" d="M709.23,1.09a8.66,8.66,0,0,1-1.16.06h1.3C709.48,1.12,709.51,1.1,709.23,1.09Z"/><path class="cls-2" d="M185.67,1.45l-6.21,0Z"/><path class="cls-2" d="M306.25,50.17l1.43,0Z"/><path class="cls-2" d="M161,1.45c-1.11-.05-2.28-.08-3.49-.1-.26,0-.56,0-.73,0Z"/><path class="cls-2" d="M588.33,50.28h0Z"/><path class="cls-2" d="M629.22,50c-5.92,0-2.78.18-4,.28-7.06.05-3.26-.13-5.67-.23-4.4,0-7.78.22-11.07.21-.25,0-.88,0-.14-.08-4.66.15-13.83,0-19.26.19-.4,0-.6,0-.71,0,.88.09,1,.19.84.25-2.65,0-4.92.12-5.92,0,1.62,0,1.76-.05,2.52-.08l-2.78,0c-2.5-.18,3.79-.06,3.79-.19-5.41.06-11.73.2-15.88.15-.86-.17,9.71-.06,4.17-.21l6.42.07c-4.9-.27,3.91,0-.6-.27l-17.89,0c-1.9.09.63.14-1.27.23-12,.17-9.43-.43-18.24-.2a84,84,0,0,1-9.44.21l2.14-.19c-8.19,0-4.67.28-13.25.15,1.53-.08,6.44-.06,5.2-.09-5.55-.15-3.93.11-8.2.11l-.88-.17-28,.18c.53,0,2.19-.1-.07-.15-12.17.08-26,0-37.72-.13l-4.48.15c-1.05,0-1.94-.06-.81-.09-4.57-.06-.24.09-2.43.15-2.61,0-3.44-.09-1.79-.13-8.08.12-23,.27-31.51.11l1.66,0c-6.62-.06-7.47.3-13.62.16l1.18,0c-14.37-.06-30.26.08-41.23-.15-2.08.21-14.23-.09-15.15.2-8.21-.14-5.86-.19-17.42-.29-3.09,0-4.6.18-8.42.21l-.09-.15L314,50.3l-2.76-.19-3.58,0a19.32,19.32,0,0,1,2.81.12c-2.79,0-6.2,0-8.93,0l-3.41-.08a13.92,13.92,0,0,1-1.43-.07l-13.23.13c.3-.06,2.51-.08,4.26-.12-7.06.16-1.28-.16-7.75,0,.87,0-.47.09-.62.12-3.22-.09-10.57-.09-16,0l1-.11-31.7,0c3.95.05,3,.24-.19.25l-1.29-.16c-2.09.1,3.37.06-.91.19-4.11,0-2.76-.19-.4-.24l-5,.05c-.3,0,.88-.07,1.18-.13-2.05.1-8.63-.17-11.59,0l-.29,0-25,.06c-.17.14-3.68.11-6.35.23-6.59,0-13.91-.16-21.85-.15-5.58.07-1.63.12-4.14.21-.41-.13-8.34-.12-4.23-.21-9.53,0-12.17,0-24.23.13,1.31,0,2.78.07,2,.12a42,42,0,0,1-4.66-.12h.57c-13.53.19-31.23-.38-42-.11H85l-11.17.14c-5.14,0,3.08-.1-.72-.18-12,.22-19,0-29,.11-1.56-.07-3.61-.12-6-.14l-7.53,0-7.56-9.72C20.52,37,18.15,34,16.33,31.47l.29.53c-1.71-2.07-1.94-2.6-3.13-4.17.12.26,1.71,2.35.66,1.06C10,23.47,5.68,17.94,1.34,12.35L16.73,1.41l28.71.14C54,1.58,50.27,1.09,61,1.3l-3,.17c17.18-.2,35.13,0,52-.16-1,0-1,.09-2.67.09,1.77.06,5.06.06,7.9,0l3.71-.05,1.14,0a1.44,1.44,0,0,0,.44,0,14.13,14.13,0,0,1,2.22.14c3.57.07,8.95-.15,10.84,0,.32,0-1,0-1.65.05,2.32-.06,10.82,0,8.59-.13,6.32.07,12.08-.06,17.12,0,3.28-.15,10.8.08,11.84-.14-.45.22,11.07.18,15.06.07-1.33.07,3.47.08,1.91.17,4.55,0,8.73-.05,7.93-.16,8.4.27,16.87-.22,21.6.13l38.22-.26c-.44.23-13.45,0-12.93.26,11.55-.09,18.21-.29,29.66-.23,3,0-1.69.1-2.69.13,11.54-.09,22.31,0,32.57-.1l-.71,0-1.47,0A39.39,39.39,0,0,0,303,1.21l-2,0c-3.23-.15,8-.31,8.4-.39-3.44.3,10.14.08,4.68.45a14.49,14.49,0,0,0,2.7-.14c2,0,2.6.06.6.14,7.24-.06,4.67-.17,11.23-.16,0,.05-1.34.07-2,.12,3.32-.09,6.66-.19,12.21-.15-.33,0,.31.07-1.35.07,9.53,0,16.24-.26,26.7-.16-3.09.21,3.55.07,4.11.25l5.62-.05-2.26-.09c4.93,0,9.28-.14,13.51-.07l-3.66.07,9.23,0L385.51,1c5-.1-.53-.24,6-.19-1.33,0,4.93,0,7.5.11h0c2.43,0,4.94-.12,8.58-.07,1,.06-.76.21-.14.25C409.85,1,419,1.08,422,.92c-1,0-1.07.13-.73.15l2-.12c2.28,0,2.62.06,2.25.13,6.86,0-2.18-.23,6-.13-.64,0-.33,0-1.67.05l23.32,0c2.22.19-6.57.05-4,.2C460,1.15,471.57,1,482.05,1L480.1,1c1.45-.26,7.81.13,13.11,0-1.3,0-1.7.15-1.35.12C499,1.15,506.54,1,517.42,1L516.07,1l15.71.06c1.36-.07,4-.05,2.39-.15,14.09.38,26.88-.21,39.38.11-1.49,0-3.56.06-2.37.06l10.65-.06C581,.93,580.43,1,578.2.89c1.34-.07,4.35-.12,7-.12-4.79.07,0,.18,2.11.25-.35,0,.36-.08.19-.11,5.56.2.93-.24,8.53-.1l-.41.06c2.85,0,5.47-.11,8.53-.09,1.28.13-3,.06-3.22.17,4.31,0,8.5-.25,12.4-.12L607,.91c4.24.15,4.74.11,7.89.14h-.31l7.29.08L620,1.07C625.43.72,631,1,638.27.78c-7,.22-1.16.13-1.7.28,1.85,0,4.67.09,3.87.13,3.43-.12,5.72.1,10.57-.08.21,0,3.67,0,2.89.12,4.46,0-1-.08-.68-.14,6.88-.17,16.17.2,26.06,0,8.52-.09,10.1-.26,18-.34,2.67.08-2.19.18-2.19.18,4.31.07,7.55.06,11.61,0-.82,0,0,.08,1.26.14,3.26,0,2.18-.18,6.48-.11-.74,0-1.68.14-3.25.2L722.81,1c1.06.08-2.39.12-3.8.18L728,1l1.59,1.67c.46.48.82.84,1,1l-1.89-2.15c1.1,1.2.48.7-.35-.18L728,1H725.9l-1.54,0A9.74,9.74,0,0,1,723,.91l2.83,0c-2.9-.28-11.37.05-17.07,0L711.14.7l-5.85.18c-1.24-.06-2.09-.17.72-.2-4.08-.11-3.61.07-7.13,0-.38,0-.21,0,.15,0l-4,.06c.78,0-.66-.15,1.79-.12-7.17-.12-11.56.16-14.26,0h.6c-9.94.07-1,.15-8.42.33l-5-.37-1,.15a22,22,0,0,1-2.68-.08c-3.82.1.65.07-1.57.17C659.58.59,650.9.79,649.79.55c-1.77.11,4.72.09-.55.17-1.5-.26-6.09,0-10.6-.08,1.38-.13,5.65-.06,1.14-.18-2.72.23-8.78-.05-12.59,0a47.17,47.17,0,0,1-5,.12l-9.65,0c.4-.06-12-.1-17.95-.17l.17,0c-1.15.19-7.27.15-11.73.19a15.23,15.23,0,0,1,3.39-.2h-4.19c-1,.06-2.3.09-5,.11l1.06-.14c-5.58,0-11.24.16-18.42.07-.41.13,5.71.36-1.88.44-.29-.07-.57-.18,1.42-.21-.65,0-2.32,0-3.63,0l3-.11c-3.27-.05-1.71.1-4.32.08,0-.09-1.94-.07-1.56-.14.66,0,2.28,0,3.28,0-3,0-6.51-.08-7.69-.15.26.05,0,.13-2.16.14-5.58,0-1.91-.12-5.17-.17-1.35.07-4.91,0-5,.15A24.43,24.43,0,0,1,533.6.36c-2.88.06-13.49,0-10.23.17h.27C514.17.7,504,.47,494.58.53V.48c-5.61.06-12.48,0-16.48.14-1.66,0-3.92-.09-3.21-.15-4.28,0-4.76.09-10.95,0,4.3-.08-1.49-.07,4.41-.06-5.57,0-6.83-.12-12.81,0,2-.12-4.19-.16-6.84-.12l3.9.09h-8.22l1.43-.17c-11.4-.2-20.55.35-29.23,0-3,.11,6.19.08,3.49.22-5.24,0-10.7-.27-12.34-.27-7.18-.09-6.7.25-14.22.18,1,.06,1.87.22-3.74.28-5.25,0-6.45-.25-3.14-.3a15.77,15.77,0,0,1,1.81,0c1.7,0,3.92,0,1.84-.12l-.68.06c-2.6-.06-9.82,0-8.12-.15-4,.06-1.7.1,1.24.13C376,.22,372.22.31,365.29.25c1.1,0,2.12.1,1,.1C356.15.28,361.84.46,355,.49,351,.4,356.35.27,349.42.35c-4.23-.06-.89-.16.79-.21-6.31.12-11.8-.07-15.4-.09l3.32,0-5.27,0,1.9.12-2.53,0a7.61,7.61,0,0,1-1,0c-2,.07,1.54.19-2.45.3-2.61-.06-7.93.06-8.83-.09,8.19.05-.9-.16,6-.19-1.34,0-3,0-4.93,0-.29,0,.28,0,.81,0-7.83-.14-3.6.18-11.72.17,1-.09-1.88-.17-3.2-.15,3.27,0,1.56.15-1.44.22-5.21-.07-5.66,0-8.39,0l3.12,0c-1.06.08-3.66.07-7.29.1-.31-.07,3.3,0,2-.08-4,.16-9.1-.16-14.72-.05-2.6-.06-.25-.17-2.54-.21-6.3.11-6.82-.12-13.44,0,1.91.12,2.24.09-2.42.21L272.66.23l-7,.18,8.9-.06c-3.33.1-3,.07-1.42.17-4.49-.18-8.9.1-14.1,0l.16-.29c-7.81-.13-13.87.15-24,.08l3.26.05c-1.36.11-6.26,0-9.54.06a20.25,20.25,0,0,0-3.15-.2c.17.08-7.42,0-8.35.19L212.91.26c-8.19-.05-9.34.29-17.21.25,2.37-.1-1.21-.17,4.06-.25h-3.48a9.35,9.35,0,0,0-1.55,0c-1.54-.06-7.29.13-9.7,0-1.11,0-1.47.14-4.42.14-.32,0,0,0,0,0s-4.62.06-2,.17C170.49.3,156,.63,148.91.37L131.06.44a3.89,3.89,0,0,1,1,0c-7.18-.09-4.41.29-12.58.18C115.3.42,123.81.5,121.21.44c-1.13-.33-9.86,0-15.36-.15l1.33,0C103,.16,96.93.4,90.06.37c0,0,.33,0,0,0C85.4.49,76.51.54,69.9.59c2.06-.13,3-.07,1.75-.2-3,0,.87.21-5,.25C64.69.57,60.42.51,59.86.37h5.57c-2.85-.18-7.22,0-10.15,0l.37-.08C47.11.28,47,.48,37.8.47l1,.06c-5,.19-4.21-.11-9.21,0L28,.36,16.45.53,11.52,4.14,13.65,2.5,16.41.43,25.1.28l-8.72,0L14.15,2c-.59.44-1.05.79-1.32,1l1.72-1.28L15.44,1l1-.67h0L13.7,2.41l-3,2.23Q7.53,7,3.54,9.86c.12-.16-.17,0-.74.36l-1.07.72L0,12.15l6.18,8.06c2.07,2.71,4,5.23,4.88,6.56,3.07,3.88,6.07,7.77,9.15,11.79L30,51.33h6c-4.79-.3,3.93,0,3.1-.31,3.14,0,4.34,0,4.62,0l9.52.19c2.25.08-3,.06-2.7.13,6.88,0,2.89.13,7.44.21-.94-.11,2.39-.15,6.31-.11l-5.52-.14c9.6-.17,8.3.25,18,.09l-3.07.1c5-.06,18.34,0,23.21-.25.88,0,2,.12-.15.15,11.88,0,26.44-.27,35.67-.11l-.9.07c2.22,0,3.86-.14,6.63-.07-.14,0-.89.08.14.08s5.88-.13,8.82-.08l-2.51.08c11.59.1,17.78-.2,27.5-.26a36.9,36.9,0,0,0,5.1.24l8.54.09-.16,0c13.49,0,22.91-.18,35.41-.27,7.75.24,26.27.1,38.73.24-1.91,0,.31-.17,2.53-.2,2.92.05,8.08-.15,7.62.05h-1.05c2.21.2,8.22.15,12.91.15l.78-.26c12.27.38,32.16-.14,38.86.2l9.57-.13-.16.14c8.21,0,12.31,0,22.45,0l-2.06.1c5.72,0,7.22-.41,12.5-.42l1.59.22c10,0,20.09.18,29.95,0a11.46,11.46,0,0,1-2.07.1c4.7,0,18.18.14,16.47-.15a9.51,9.51,0,0,0,1.75.08h4.12l9.83-.13-.84.13c4.55-.17,4.69-.22,11-.27,1.51,0,1.32.11-.68.07,5,.08,3.91-.13,10,0l-2.26.09c5.16,0,4.75,0,7.59-.14,3.25-.06,9.8,0,10.56.16.7-.08,3.52-.18,6.57-.15.41,0-.7.08-1.26.09,8.64.1,12.84-.16,18.78,0a4.49,4.49,0,0,0,1,.08l-11.86,0c0,.13,5.54.15,1.13.33,4.45-.1,12.05-.31,17.45-.25l.72.05h-.56c1.24,0,2.36,0,3.41,0l4.47,0c.64.11,6.36.06,9.12.06-.23-.14,3.39-.12,0-.23.44,0-.52,0-2.36,0l-1.18,0,.19,0h-6.86c2.18-.07,4.46-.13,7.51-.05l3.86-.23c3.78.2,11.07.3,12.08.42,8.44-.07,19.88-.05,25.18-.31a31.05,31.05,0,0,1,3.65.12c-1.38,0-3,0-3.78.06,4.8-.07,14.21,0,15.36-.21,6,.08-3.4.17,4.9.14l-1.12,0c16.34.3,26.57-.47,44.68-.09-1.26,0-1.88,0-2.14-.07,20.65.17,42.56-.15,62.94.11,5.79.06,6.42-.06,9.95-.15l1.26.15,6-.17c4.09-.07,7.65,0,11.44.09l6,.09h3.28l3.72,0L715.36,50l-1.13,1,5.47-5.32a37.89,37.89,0,0,1,3-2.84,24.37,24.37,0,0,1,2-2l.14,0L731.6,34c5.36-5.13-.62,1,7.16-6.5,2.87-2.82,8.06-8.15,6.94-7.13s-3,2.85-3.15,2.88l2.61-2.59c.32-.64,2.18-2.78-4.42,3.4l-4.41,4.49-1.54,1.33,3.8-3.69c-2.23,2-3.53,3.41-5,4.94-.4.31-1.07.9-2,1.75l-4.28,4.47c-.6.46,1.86-2.06-1.15.79-2,2.1,2.14-1.78-1.25,1.61a49.49,49.49,0,0,0-4.14,3.87c-.4.31.11-.24,1.1-1.24-2.21,2.25-6,5.83-7,7l-.93.86-5.66,0a13.88,13.88,0,0,1-3-.12c-1,0-5.54.17-8.43.18,5.28-.26-10.82,0-9.43-.3-3.91.24-14.12.11-21,.24.38,0,1.14-.06,1.76,0-3.9,0-5-.09-7.54-.13-.5.19-6.57.24-9.84.36-4.78-.19,2.9-.23,1.4-.41.24.16-8.3.16-6.68.29-3.65-.12-3.14-.06-5-.22-.64.25-3.4,0-6.43.19-5.28-.12-1.36-.23-7.17-.15C624.05,50,629.22,50,629.22,50Zm-138.14.42Zm-11.61,0h5c.41,0,0,.1-1.2.09C483.94,50.44,481.21,50.41,479.47,50.37Zm24.56,1c-1.84,0-2.45,0-2.71,0l3.22,0,.21,0A5.67,5.67,0,0,1,504,51.35Z"/><path class="cls-2" d="M507.33,51.16h.76l-1.1,0-.65,0Z"/><path class="cls-2" d="M523.37.53h-.25l.52,0Z"/><polygon class="cls-2" points="319.18 50.1 319.2 50.14 320.21 50.11 319.18 50.1"/><path class="cls-2" d="M587.3,1l.84,0Z"/><path class="cls-2" d="M614.92,1.05l3.9.05Z"/><path class="cls-2" d="M636.15,1.12l.42-.06h0Z"/><path class="cls-2" d="M298.54,1.28h-.82C295.8,1.32,297.1,1.31,298.54,1.28Z"/><path class="cls-2" d="M399,1,395.78,1A22.85,22.85,0,0,0,399,1Z"/><path class="cls-2" d="M186.35,1.45h0Z"/><path class="cls-2" d="M391.11,1c1.79,0,3.28,0,4.67,0C394.31,1,392.59,1,391.11,1Z"/><path class="cls-2" d="M727.93,1.21l.58.66s0,0,.1.07Z"/><path class="cls-2" d="M728.61,1.94l.78.83C729,2.38,728.73,2.05,728.61,1.94Z"/><path class="cls-2" d="M731,4.52l-1.63-1.75C729.94,3.38,730.63,4.14,731,4.52Z"/><path class="cls-2" d="M700.07,1.12l-.32,0A.94.94,0,0,0,700.07,1.12Z"/><path class="cls-2" d="M691.53,1.13c2,0,5.11.11,8,.08l.26,0C698.42,1.24,693.47,1.05,691.53,1.13Z"/><path class="cls-2" d="M655.88.5l7.16,0c-1.26-.05-2.9-.12.35-.14C654.37.24,665.26.52,655.88.5Z"/><path class="cls-2" d="M633.68.42c3.85,0,0-.08.16-.11C631.4.36,630.81.38,633.68.42Z"/><path class="cls-2" d="M473.29.42l.39-.13C470.71.31,473.65.34,473.29.42Z"/><polygon class="cls-2" points="442.63 1.08 445.51 1.16 446.89 1.05 442.63 1.08"/><polygon class="cls-2" points="424.52 0.17 425.81 0.15 420.87 0.2 424.52 0.17"/><path class="cls-2" d="M155.14.22l.89.16C158,.35,158.46.17,155.14.22Z"/><path class="cls-2" d="M38.85.38C37.58.3,34.31.25,32.29.33,34.91.34,37.51.4,38.85.38Z"/><polygon class="cls-2" points="288.34 51.37 286 51.42 290.41 51.37 288.34 51.37"/></g></svg>